<svg width="55" height="40" viewBox="0 0 55 40" fill="none" xmlns="http://www.w3.org/2000/svg">
<path d="M34.8923 39.6039C34.3405 39.6039 33.7887 39.4006 33.3531 38.965C32.511 38.1228 32.511 36.7289 33.3531 35.8867L49.4415 19.7983L33.3531 3.70992C32.511 2.86775 32.511 1.4738 33.3531 0.63163C34.1953 -0.210543 35.5892 -0.210543 36.4314 0.63163L54.059 18.2591C54.9012 19.1013 54.9012 20.4953 54.059 21.3374L36.4314 38.965C35.9958 39.4006 35.444 39.6039 34.8923 39.6039Z" fill="black"/>
<path d="M52.0288 21.9761H3.1537C1.96304 21.9761 0.975664 20.9887 0.975664 19.798C0.975664 18.6074 1.96304 17.62 3.1537 17.62H52.0288C53.2195 17.62 54.2068 18.6074 54.2068 19.798C54.2068 20.9887 53.2195 21.9761 52.0288 21.9761Z" fill="black"/>
</svg>
