<svg width="54" height="40" viewBox="0 0 54 40" fill="none" xmlns="http://www.w3.org/2000/svg">
<path d="M19.7984 -4.00447e-06C20.3502 -3.95624e-06 20.9019 0.203285 21.3376 0.638889C22.1797 1.48106 22.1797 2.875 21.3376 3.71718L5.24913 19.8056L21.3376 35.894C22.1797 36.7361 22.1797 38.1301 21.3376 38.9723C20.4954 39.8144 19.1014 39.8144 18.2593 38.9723L0.631696 21.3447C-0.210478 20.5026 -0.210478 19.1086 0.631697 18.2665L18.2593 0.638889C18.6949 0.203285 19.2466 -4.05271e-06 19.7984 -4.00447e-06Z" fill="black"/>
<path d="M2.66187 17.6278L51.537 17.6278C52.7276 17.6278 53.715 18.6152 53.715 19.8059C53.715 20.9965 52.7276 21.9839 51.537 21.9839L2.66187 21.9839C1.47121 21.9839 0.483831 20.9965 0.483831 19.8058C0.483831 18.6152 1.47121 17.6278 2.66187 17.6278Z" fill="black"/>
</svg>
